<?xml version="1.0" encoding="UTF-8" standalone="no"?>
<svg
   version="1.0"
   width="1024.000000pt"
   height="1024.000000pt"
   viewBox="0 0 1024.000000 1024.000000"
   preserveAspectRatio="xMidYMid meet"
   id="svg25"
   sodipodi:docname="ChatGPT-Image-2025年4月13日-16_58_00.svg"
   inkscape:version="1.3.2 (091e20e, 2023-11-25)"
   xmlns:inkscape="http://www.inkscape.org/namespaces/inkscape"
   xmlns:sodipodi="http://sodipodi.sourceforge.net/DTD/sodipodi-0.dtd"
   xmlns="http://www.w3.org/2000/svg"
   xmlns:svg="http://www.w3.org/2000/svg">
  <defs
     id="defs25" />
  <sodipodi:namedview
     id="namedview25"
     pagecolor="#ffffff"
     bordercolor="#000000"
     borderopacity="0.25"
     inkscape:showpageshadow="2"
     inkscape:pageopacity="0.0"
     inkscape:pagecheckerboard="0"
     inkscape:deskcolor="#d1d1d1"
     inkscape:document-units="pt"
     inkscape:zoom="0.17285156"
     inkscape:cx="679.77401"
     inkscape:cy="682.66667"
     inkscape:window-width="1328"
     inkscape:window-height="451"
     inkscape:window-x="0"
     inkscape:window-y="25"
     inkscape:window-maximized="0"
     inkscape:current-layer="svg25" />
  <g
     transform="matrix(0.1,0,0,-0.1,4.3389829,1050.0339)"
     fill="#000000"
     stroke="none"
     id="g25"
     style="fill:#008000">
    <path
       d="m 4590,9945 c -387,-55 -708,-226 -948,-506 -50,-58 -195,-279 -452,-685 -336,-532 -376,-599 -357,-603 12,-2 175,2 362,8 270,10 345,15 363,27 24,15 48,52 362,539 297,462 319,492 404,579 93,95 152,130 252,147 204,35 576,-43 783,-166 190,-114 416,-314 573,-508 113,-141 134,-175 121,-195 -5,-10 -111,-73 -234,-142 -123,-69 -223,-129 -222,-135 2,-12 1239,-425 1274,-425 59,0 48,-34 364,1100 34,124 61,227 59,229 -1,2 -104,-49 -228,-113 -124,-64 -231,-116 -238,-116 -7,0 -60,75 -118,167 -125,198 -195,288 -318,405 -200,190 -448,316 -748,379 -90,20 -137,22 -529,25 -322,2 -454,-1 -525,-11 z"
       id="path1"
       style="fill:#008000" />
    <path
       d="m 7220,7667 c -117,-245 -154,-332 -154,-363 -1,-34 13,-64 93,-195 431,-706 487,-805 537,-954 32,-99 29,-149 -20,-263 -68,-157 -153,-279 -282,-402 -290,-274 -709,-429 -1160,-430 -121,0 -145,3 -164,18 l -22,18 10,249 c 6,137 10,251 8,252 -3,3 -887,-708 -968,-778 -52,-45 -58,-55 -58,-89 0,-28 7,-45 28,-66 54,-57 883,-849 891,-852 4,-1 13,95 20,215 7,120 17,225 22,234 7,15 45,17 321,21 351,6 437,17 631,84 273,95 506,276 684,532 99,141 336,540 398,667 96,198 142,379 152,595 10,220 -33,463 -117,654 -23,53 -188,337 -367,633 -179,296 -326,539 -327,540 -1,1 -71,-143 -156,-320 z"
       id="path2"
       style="fill:#008000" />
    <path
       d="m 2605,7685 c -291,-85 -572,-166 -623,-181 l -93,-27 208,-138 c 114,-76 212,-144 216,-151 6,-9 -26,-78 -92,-203 -117,-219 -151,-303 -179,-435 -59,-273 -43,-559 44,-813 56,-162 240,-496 431,-786 198,-298 443,-492 755,-595 206,-69 207,-69 976,-73 668,-4 693,-4 683,14 -40,69 -411,590 -431,604 -22,16 -73,19 -505,28 -520,12 -706,23 -830,47 -188,37 -272,116 -354,335 -102,270 -109,544 -21,875 42,159 126,362 207,501 30,52 4,62 278,-116 110,-71 201,-128 202,-127 3,3 -58,305 -215,1069 -33,160 -66,295 -73,302 -8,7 -23,15 -34,18 -11,3 -258,-64 -550,-148 z"
       id="path3"
       style="fill:#008000" />
    <path
       d="m 6125,7785 c -141,-68 -287,-90 -685,-105 -284,-10 -381,-22 -535,-66 -404,-113 -690,-450 -784,-924 -17,-83 -42,-288 -37,-297 1,-1 44,50 96,114 111,135 273,294 385,379 274,208 581,328 885,348 93,6 85,2 -57,-34 -361,-89 -793,-426 -1054,-822 -161,-246 -293,-591 -276,-722 8,-61 46,-90 110,-83 68,6 84,25 102,128 27,156 80,296 140,367 14,17 46,41 72,53 44,21 60,23 282,24 260,1 324,11 506,75 116,41 180,74 291,148 326,219 525,553 610,1027 14,80 33,426 23,424 -2,0 -35,-16 -74,-34 z"
       id="path4"
       style="fill:#008000" />
    <path
       d="m 2830,3519 c 0,-6 -11,-48 -25,-93 l -25,-81 -280,3 -280,3 2,-753 3,-753 h 763 762 v 750 750 h -365 c -257,0 -365,3 -365,11 0,6 8,35 18,65 11,30 22,66 26,82 l 6,27 h -120 c -81,0 -120,-4 -120,-11 z m 695,-412 c 3,-17 5,-68 3,-112 l -3,-80 -537,-3 -538,-2 v 113 c 0,63 2,116 4,118 2,2 243,3 535,1 l 530,-2 z m -1,-434 c 3,-25 6,-77 6,-114 v -69 h -540 -540 v 108 c 0,60 3,111 6,115 3,3 244,6 534,6 l 527,1 z m 4,-510 3,-123 h -541 -540 v 125 125 l 538,-2 537,-3 z"
       id="path5"
       style="fill:#008000" />
    <path
       d="m 5077,3513 c -4,-3 -7,-249 -7,-545 0,-593 -2,-622 -62,-765 -36,-87 -85,-166 -161,-254 l -56,-66 37,-18 c 20,-10 67,-30 104,-46 l 67,-27 44,51 c 134,158 194,284 237,500 l 11,57 h 216 215 l -4,-171 -4,-171 -27,-24 c -26,-22 -36,-24 -144,-24 h -115 l 5,-27 c 3,-16 11,-63 18,-107 l 12,-78 141,5 c 78,3 159,10 181,17 51,16 110,75 124,125 7,28 11,278 11,808 v 767 h -418 c -230,0 -422,-3 -425,-7 z m 641,-320 3,-123 h -216 -215 v 125 125 l 213,-2 212,-3 z m -3,-453 v -135 l -212,-3 -213,-2 v 133 c 0,74 3,137 7,141 4,3 99,5 212,4 l 206,-3 z"
       id="path6"
       style="fill:#008000" />
    <path
       d="m 6290,3491 c 0,-6 10,-34 22,-63 11,-29 38,-109 58,-178 l 38,-125 106,-3 c 85,-2 106,0 106,11 0,19 -64,211 -99,295 l -28,67 -101,3 c -63,2 -102,-1 -102,-7 z"
       id="path7"
       style="fill:#008000" />
    <path
       d="m 6707,3493 c -3,-2 -3,-219 0,-481 6,-484 1,-622 -33,-849 -13,-91 -26,-141 -78,-306 l -15,-48 112,3 112,3 23,65 c 13,36 37,142 54,235 l 31,170 4,508 4,507 h 254 254 l -24,-65 c -14,-36 -25,-68 -25,-70 0,-2 -80,-6 -177,-7 l -178,-3 -3,-377 -2,-378 202,-2 203,-3 2,-175 c 4,-227 5,-224 -105,-228 -45,-2 -82,-6 -82,-10 0,-4 7,-47 16,-95 l 16,-89 133,4 c 149,3 170,12 210,79 18,31 20,55 23,277 l 4,242 h 199 199 l -2,378 -3,377 -231,5 -231,5 25,68 25,67 h 228 229 l 5,23 c 3,12 5,55 3,96 l -3,73 -687,3 c -378,2 -689,1 -691,-2 z m 1123,-568 v -65 h -295 -295 v 65 65 h 295 295 z m -5,-290 v -70 l -292,-3 -293,-2 v 75 75 l 293,-2 292,-3 z"
       id="path8"
       style="fill:#008000" />
    <path
       d="m 4235,3478 c -3,-7 -4,-321 -3,-698 l 3,-685 343,-3 342,-2 -2,697 -3,698 -338,3 c -265,2 -339,0 -342,-10 z m 473,-390 -3,-202 -130,1 -130,1 -3,188 c -1,104 0,194 2,201 4,10 39,13 136,13 h 130 z m 2,-598 v -200 h -135 -135 v 200 200 h 135 135 z"
       id="path9"
       style="fill:#008000" />
    <path
       d="m 6303,3008 c 3,-13 32,-99 65,-193 l 60,-170 96,-3 c 73,-2 96,0 96,10 0,27 -50,196 -83,283 l -34,90 -103,3 c -102,3 -102,3 -97,-20 z"
       id="path10"
       style="fill:#008000" />
    <path
       d="m 6440,2514 c 0,-27 -138,-567 -176,-686 -5,-16 4,-18 98,-18 h 104 l 11,33 c 38,107 153,600 153,655 v 32 h -95 c -81,0 -95,-2 -95,-16 z"
       id="path11"
       style="fill:#008000" />
    <path
       d="m 7097,2293 c -2,-5 -21,-48 -42,-98 -21,-49 -58,-127 -82,-173 -24,-45 -48,-93 -53,-107 l -10,-25 h 119 119 l 91,181 c 50,99 91,191 91,205 0,24 0,24 -114,24 -63,0 -117,-3 -119,-7 z"
       id="path12"
       style="fill:#008000" />
    <path
       d="m 7720,2288 c 0,-7 39,-99 87,-205 l 87,-193 h 114 c 113,0 113,0 106,22 -4,13 -43,105 -87,205 l -81,183 h -113 c -83,0 -113,-3 -113,-12 z"
       id="path13"
       style="fill:#008000" />
    <path
       d="m 5147,1366 c -63,-17 -116,-61 -147,-122 -21,-41 -25,-62 -25,-134 0,-75 3,-91 29,-137 46,-84 120,-125 223,-125 100,1 192,64 218,150 6,21 3,22 -42,22 -43,0 -51,-4 -75,-34 -50,-62 -137,-71 -197,-20 -36,30 -52,76 -52,149 0,110 64,181 155,172 41,-4 55,-11 82,-40 27,-29 40,-36 76,-37 24,-1 46,-1 51,-1 11,2 -21,73 -46,99 -53,57 -162,83 -250,58 z"
       id="path14"
       style="fill:#008000" />
    <path
       d="m 6150,1369 c -226,-46 -256,-407 -41,-502 63,-28 159,-26 219,5 50,26 97,79 107,121 7,27 7,27 -42,27 -43,0 -52,-4 -72,-30 -49,-67 -129,-76 -192,-23 -41,35 -59,79 -59,148 0,64 27,126 65,151 59,39 163,21 188,-33 9,-20 17,-23 64,-23 h 53 l -15,38 c -42,99 -149,147 -275,121 z"
       id="path15"
       style="fill:#008000" />
    <path
       d="m 7893,1370 c -58,-12 -94,-33 -135,-78 -45,-50 -63,-101 -62,-182 1,-114 59,-208 153,-248 20,-8 66,-15 102,-15 54,0 76,5 119,29 76,41 98,80 102,179 l 3,80 -102,3 -103,3 v -46 -45 h 55 c 51,0 55,-2 55,-24 0,-13 -13,-38 -28,-54 -79,-84 -229,-28 -247,93 -12,78 2,134 44,176 63,63 140,64 197,3 28,-29 39,-34 79,-34 43,0 46,1 40,23 -30,102 -149,161 -272,137 z"
       id="path16"
       style="fill:#008000" />
    <path
       d="m 2748,1362 -58,-3 V 1110 860 h 50 50 l 2,168 3,167 65,-148 64,-148 44,3 43,3 62,142 c 34,79 65,143 69,143 4,0 7,-75 7,-166 V 857 l 45,-1 46,-1 v 253 252 h -63 -63 l -68,-167 c -38,-93 -72,-171 -76,-176 -3,-4 -39,70 -80,165 -40,95 -76,175 -79,178 -3,3 -32,4 -63,2 z"
       id="path17"
       style="fill:#008000" />
    <path
       d="m 3721,1360 -54,-5 -52,-92 c -28,-51 -54,-95 -57,-98 -3,-4 -32,39 -63,94 l -56,101 h -55 c -30,0 -54,-3 -54,-6 0,-3 38,-70 85,-149 l 85,-144 V 961 860 h 45 c 25,0 48,-1 51,-2 4,-2 6,41 5,94 l -2,97 91,156 c 51,86 90,157 88,158 -1,1 -27,0 -57,-3 z"
       id="path18"
       style="fill:#008000" />
    <path
       d="M 4050,1110 V 855 l 50,3 50,4 v 89 89 h 45 44 l 48,-89 48,-89 58,-4 c 31,-2 57,-1 57,2 0,3 -25,48 -56,100 -30,52 -51,96 -45,98 25,8 65,48 77,78 31,75 6,162 -57,199 -28,17 -58,21 -177,25 l -142,5 z m 239,159 c 53,-19 69,-81 31,-119 -16,-16 -33,-20 -95,-20 h -75 v 75 75 h 54 c 29,0 67,-5 85,-11 z"
       id="path19"
       style="fill:#008000" />
    <path
       d="m 4543,1354 c -7,-19 2,-494 10,-494 4,0 81,0 172,0 h 165 v 40 39 l -122,3 -123,3 -3,63 -3,62 h 116 116 l -3,41 -3,41 -110,2 -110,1 -3,63 -3,62 h 121 120 v 43 42 h -166 c -111,0 -168,-4 -171,-11 z"
       id="path20"
       style="fill:#008000" />
    <path
       d="m 5485,1360 c -1,-3 37,-72 86,-153 l 88,-148 3,-101 3,-101 h 49 49 l -2,94 -2,94 90,155 c 50,85 91,156 91,159 0,4 -25,4 -55,3 l -55,-4 -56,-105 -57,-105 -44,79 c -25,43 -53,91 -62,107 -14,26 -22,29 -69,30 -30,0 -55,-1 -57,-4 z"
       id="path21"
       style="fill:#008000" />
    <path
       d="m 6577,1362 -47,-3 2,-250 3,-250 163,-2 162,-2 v 42 42 l -111,3 -111,3 2,207 c 0,113 -3,208 -7,210 -4,2 -29,2 -56,0 z"
       id="path22"
       style="fill:#008000" />
    <path
       d="M 6950,1110 V 855 l 50,3 50,4 v 248 248 l -50,4 -50,3 z"
       id="path23"
       style="fill:#008000" />
    <path
       d="M 7170,1110 V 855 h 42 43 l 5,170 5,170 116,-165 116,-165 47,-6 c 30,-3 50,-1 52,6 3,6 3,120 2,254 l -3,244 -47,1 -48,1 -2,-173 -3,-173 -118,170 -118,169 -45,4 -44,3 z"
       id="path24"
       style="fill:#008000" />
    <path
       d="m 2180,1320 v -40 h 130 c 72,0 130,-3 130,-6 0,-3 -58,-84 -130,-180 -99,-132 -130,-181 -130,-204 v -30 h 200 c 110,0 203,0 208,0 4,0 8,18 10,40 l 3,40 h -140 c -78,0 -141,3 -141,6 0,3 61,85 135,182 99,129 135,184 135,204 v 28 h -205 -205 z"
       id="path25"
       style="fill:#008000" />
  </g>
</svg>
